<svg width="298" height="261" viewBox="0 0 298 261" fill="none" xmlns="http://www.w3.org/2000/svg">
<g clip-path="url(#clip0_92_102)">
<path d="M154.4 81.9C146 63.6 128.3 51.8 108.2 51.1C88.1003 50.3 69.6003 60.8 59.8003 78.4L7.70025 172.4C-2.69975 191.1 -2.39975 213.2 8.50025 231.6C19.3002 250 38.5003 261 59.9002 261H168.6L148.4 217.1H59.8003C51.7002 217.1 47.6002 211.7 46.2002 209.3C44.8002 206.9 42.1002 200.8 46.0002 193.6L98.1003 99.6C100.5 95.3 104.4 94.8 106.5 94.9C108.6 95 112.4 95.8 114.5 100.2L188.5 260.9H236.8L154.4 81.9Z" fill="#ED3346"/>
<path d="M277.601 157.9L297.701 201.8L368.801 120C382.701 103.8 386.901 82.1001 380.001 61.9001C373.101 41.7001 356.501 27.1001 335.601 22.8001L230.301 1.10009C210.601 -2.99991 190.601 4.30009 178.101 20.0001C165.601 35.7001 163.001 56.9001 171.401 75.1001L256.701 260.9H305.001L211.201 56.8001C209.201 52.3001 211.101 48.9001 212.401 47.3001C213.701 45.6001 216.601 43.0001 221.401 44.0001L326.701 65.7001C334.701 67.4001 337.601 73.5001 338.501 76.1001C339.401 78.7001 340.801 85.3001 335.501 91.5001L277.601 157.9Z" fill="#ED3346"/>
</g>
<defs>
<clipPath id="clip0_92_102">
<rect width="298" height="261" fill="white"/>
</clipPath>
</defs>
</svg>
