<svg width="148" height="47" viewBox="0 0 148 47" fill="none" xmlns="http://www.w3.org/2000/svg">
<mask id="mask0_980_2550" style="mask-type:luminance" maskUnits="userSpaceOnUse" x="12" y="8" width="31" height="31">
<path d="M12.6982 23.5743C12.6982 31.7793 19.3286 38.4681 27.5278 38.4681C35.6974 38.4681 42.3574 31.809 42.3574 23.5743C42.3574 15.3397 35.727 8.68058 27.5278 8.68058C19.3286 8.71031 12.6982 15.3694 12.6982 23.5743Z" fill="white"/>
</mask>
<g mask="url(#mask0_980_2550)">
<path d="M42.3278 8.71031H12.6982V38.4681H42.3278V8.71031Z" fill="#ED3346"/>
</g>
<path d="M25.5149 20.5421C25.0117 19.4421 23.9757 18.7584 22.7917 18.6989C21.6077 18.6395 20.5125 19.2638 19.9205 20.334L16.8125 25.9228C16.1909 27.0228 16.2205 28.3605 16.8717 29.4307C17.5229 30.5307 18.6477 31.1847 19.9205 31.1847H26.3733L25.1893 28.5686H19.9205C19.4469 28.5686 19.2101 28.2416 19.1213 28.093C19.0325 27.9443 18.8845 27.5876 19.1213 27.1714L22.1997 21.5825C22.3477 21.315 22.5845 21.2853 22.7029 21.315C22.8213 21.315 23.0581 21.3744 23.1765 21.642L27.5573 31.2144H30.4285L25.5149 20.5421Z" fill="white"/>
<path d="M32.8263 25.0607L34.0103 27.6768L38.2135 22.8014C39.0423 21.8501 39.2791 20.5421 38.8647 19.3529C38.4503 18.1638 37.4735 17.272 36.2303 17.0342L29.9847 15.7559C28.8303 15.518 27.6463 15.9342 26.8767 16.8855C26.1367 17.8071 25.9887 19.0854 26.4919 20.1556L31.5535 31.2144H34.4247L28.8895 19.0557C28.7711 18.7881 28.8895 18.58 28.9487 18.4908C29.0375 18.4016 29.2151 18.2233 29.4815 18.2827L35.7271 19.561C36.2007 19.6502 36.3783 20.0367 36.4375 20.1853C36.4967 20.334 36.5855 20.7204 36.2599 21.1069L32.8263 25.0607Z" fill="white"/>
<path d="M46.6199 32.0468L54.3751 14.7154H57.5423L65.3271 32.0468H61.9823L55.2927 16.4396H56.5655L49.9055 32.0468H46.6199ZM50.2015 28.0335L51.0599 25.5066H60.3839L61.2423 28.0335H50.2015Z" fill="#1E1E1E"/>
<path d="M70.1814 32.2252C69.2046 32.2252 68.3462 32.0468 67.6062 31.7198C66.8662 31.3928 66.3038 30.9171 65.8894 30.3226C65.475 29.728 65.2974 29.0443 65.2974 28.2713C65.2974 27.5281 65.475 26.8741 65.8302 26.2796C66.1854 25.685 66.7478 25.2094 67.5766 24.8824C68.3758 24.5256 69.4414 24.377 70.7734 24.377H74.5918V26.4282H70.9806C69.915 26.4282 69.2342 26.6066 68.8494 26.9336C68.4942 27.2606 68.3166 27.6768 68.3166 28.1822C68.3166 28.747 68.5238 29.1929 68.9678 29.5199C69.4118 29.8469 70.0334 30.0253 70.803 30.0253C71.5726 30.0253 72.2238 29.8469 72.8454 29.5199C73.4374 29.1632 73.8814 28.6578 74.1478 27.9741L74.651 29.8172C74.355 30.5901 73.8222 31.1847 73.0526 31.6306C72.3126 32.0171 71.3358 32.2252 70.1814 32.2252ZM74.2958 32.0468V29.3713L74.1182 28.8065V24.1392C74.1182 23.2176 73.8518 22.5338 73.319 22.0285C72.7862 21.5231 71.9574 21.2853 70.8622 21.2853C70.1222 21.2853 69.3822 21.4042 68.6718 21.642C67.9614 21.8798 67.3398 22.2068 66.8662 22.5933L65.6526 20.334C66.363 19.7989 67.1918 19.3827 68.1686 19.1151C69.1454 18.8476 70.1518 18.6989 71.2174 18.6989C73.1118 18.6989 74.5918 19.1448 75.6278 20.0664C76.6638 20.988 77.1966 22.3852 77.1966 24.3175V32.0765H74.2958V32.0468Z" fill="#1E1E1E"/>
<path d="M78.9727 32.0468V18.8476H81.9031V22.4744L81.5479 21.4042C81.9327 20.5123 82.5543 19.8286 83.4127 19.3827C84.2711 18.907 85.3071 18.6989 86.5799 18.6989V21.642C86.4615 21.6123 86.3135 21.5825 86.2247 21.5825C86.1063 21.5825 85.9879 21.5825 85.8695 21.5825C84.7151 21.5825 83.7679 21.9393 83.0871 22.623C82.4063 23.3068 82.0511 24.3175 82.0511 25.685V32.1063H78.9727V32.0468Z" fill="#1E1E1E"/>
<path d="M92.3518 32.2252C91.375 32.2252 90.5166 32.0468 89.7766 31.7198C89.0366 31.3928 88.4742 30.9171 88.0598 30.3226C87.6454 29.728 87.4678 29.0443 87.4678 28.2713C87.4678 27.5281 87.6454 26.8741 88.0006 26.2796C88.3558 25.685 88.9182 25.2094 89.747 24.8824C90.5462 24.5256 91.6118 24.377 92.9438 24.377H96.7622V26.4282H93.151C92.0854 26.4282 91.4046 26.6066 91.0198 26.9336C90.6646 27.2606 90.487 27.6768 90.487 28.1822C90.487 28.747 90.6942 29.1929 91.1382 29.5199C91.5822 29.8469 92.2038 30.0253 92.9734 30.0253C93.743 30.0253 94.3942 29.8469 95.0158 29.5199C95.6078 29.1632 96.0518 28.6578 96.3182 27.9741L96.8214 29.8172C96.5254 30.5901 95.9926 31.1847 95.223 31.6306C94.483 32.0171 93.5062 32.2252 92.3518 32.2252ZM96.4958 32.0468V29.3713L96.3182 28.8065V24.1392C96.3182 23.2176 96.0518 22.5338 95.519 22.0285C94.9862 21.5231 94.1574 21.2853 93.0622 21.2853C92.3222 21.2853 91.5822 21.4042 90.8718 21.642C90.1614 21.8798 89.5398 22.2068 89.0662 22.5933L87.8526 20.334C88.563 19.7989 89.3918 19.3827 90.3686 19.1151C91.3454 18.8476 92.3518 18.6989 93.4174 18.6989C95.3118 18.6989 96.7918 19.1448 97.8278 20.0664C98.8638 20.988 99.3966 22.3852 99.3966 24.3175V32.0765H96.4958V32.0468Z" fill="#1E1E1E"/>
<path d="M104.784 32.0468L99.1599 18.8476H102.357L107.211 30.5009H105.642L110.674 18.8476H113.634L107.981 32.0765H104.784V32.0468Z" fill="#1E1E1E"/>
<path d="M115.44 32.0468V25.0013H118.341C118.962 25.0013 119.495 25.0904 119.939 25.2985C120.383 25.5066 120.738 25.7742 120.975 26.1607C121.212 26.5471 121.33 26.993 121.33 27.4984C121.33 28.0038 121.212 28.4497 120.975 28.8362C120.738 29.2226 120.383 29.4902 119.939 29.6983C119.495 29.9064 118.962 29.9956 118.341 29.9956H116.18L116.772 29.3713V32.0171H115.44V32.0468ZM116.742 29.5497L116.15 28.9254H118.252C118.814 28.9254 119.258 28.8064 119.554 28.5686C119.85 28.3308 119.998 27.9741 119.998 27.5281C119.998 27.0822 119.85 26.7255 119.554 26.4877C119.258 26.2498 118.844 26.1309 118.252 26.1309H116.15L116.742 25.4769V29.5497Z" fill="#1E1E1E"/>
<path d="M125.563 32.136C125.001 32.136 124.498 32.0468 124.054 31.8684C123.58 31.6901 123.195 31.4225 122.84 31.0955C122.485 30.7685 122.248 30.382 122.041 29.9361C121.863 29.4902 121.774 29.0145 121.774 28.4794C121.774 27.9443 121.863 27.4687 122.041 27.0228C122.218 26.5768 122.485 26.1904 122.84 25.8634C123.195 25.5364 123.58 25.2985 124.054 25.0904C124.527 24.9121 125.03 24.8229 125.563 24.8229C126.126 24.8229 126.629 24.9121 127.073 25.0904C127.517 25.2688 127.931 25.5364 128.286 25.8634C128.642 26.1904 128.878 26.5768 129.086 27.0228C129.263 27.4687 129.352 27.9443 129.352 28.4794C129.352 29.0145 129.263 29.4902 129.086 29.9361C128.908 30.382 128.642 30.7685 128.286 31.0955C127.931 31.4225 127.546 31.6603 127.073 31.8387C126.599 32.0468 126.126 32.136 125.563 32.136ZM125.563 31.0063C125.918 31.0063 126.244 30.9469 126.54 30.828C126.836 30.709 127.102 30.5307 127.31 30.3226C127.517 30.0848 127.694 29.8469 127.813 29.5497C127.931 29.2524 127.99 28.9254 127.99 28.5686C127.99 28.2119 127.931 27.8849 127.813 27.5876C127.694 27.2903 127.517 27.0228 127.31 26.8147C127.102 26.5768 126.836 26.4282 126.54 26.3093C126.244 26.1904 125.918 26.1309 125.563 26.1309C125.208 26.1309 124.882 26.1904 124.586 26.3093C124.29 26.4282 124.024 26.6066 123.817 26.8147C123.58 27.0525 123.432 27.2903 123.284 27.5876C123.166 27.8849 123.106 28.2119 123.106 28.5686C123.106 28.9254 123.166 29.2524 123.284 29.5497C123.402 29.8469 123.58 30.1145 123.787 30.3523C123.994 30.5901 124.261 30.7388 124.557 30.8577C124.882 30.9469 125.208 31.0063 125.563 31.0063Z" fill="#1E1E1E"/>
<path d="M132.46 32.136C131.897 32.136 131.394 32.0468 130.891 31.8982C130.388 31.7495 130.003 31.5414 129.707 31.2739L130.151 30.2631C130.417 30.4712 130.773 30.6793 131.187 30.828C131.601 30.9766 132.016 31.0361 132.46 31.0361C132.815 31.0361 133.111 31.0063 133.348 30.9171C133.585 30.828 133.733 30.7388 133.851 30.5901C133.969 30.4415 133.999 30.2929 133.999 30.1145C133.999 29.9064 133.91 29.728 133.762 29.6091C133.614 29.4902 133.407 29.3713 133.17 29.2821C132.933 29.1929 132.667 29.1335 132.371 29.074C132.075 29.0145 131.779 28.9254 131.483 28.8362C131.187 28.747 130.921 28.6281 130.684 28.4794C130.447 28.3308 130.24 28.1524 130.092 27.9146C129.944 27.6768 129.855 27.3498 129.855 26.993C129.855 26.6066 129.944 26.2498 130.151 25.9526C130.358 25.6256 130.654 25.3877 131.098 25.1796C131.513 25.0013 132.045 24.8824 132.697 24.8824C133.111 24.8824 133.525 24.9418 133.94 25.031C134.354 25.1499 134.709 25.2985 135.035 25.5066L134.621 26.5174C134.295 26.339 133.969 26.1904 133.644 26.1012C133.318 26.012 132.993 25.9526 132.667 25.9526C132.312 25.9526 132.016 25.9823 131.779 26.0715C131.542 26.1607 131.394 26.2796 131.276 26.4282C131.157 26.5768 131.128 26.7255 131.128 26.9039C131.128 27.112 131.217 27.2903 131.365 27.4092C131.513 27.5281 131.72 27.6471 131.957 27.7065C132.193 27.766 132.46 27.8552 132.785 27.9146C133.081 27.9741 133.377 28.0632 133.673 28.1524C133.969 28.2416 134.236 28.3605 134.473 28.5092C134.709 28.6578 134.917 28.8362 135.065 29.074C135.213 29.3118 135.301 29.6091 135.301 29.9956C135.301 30.382 135.213 30.709 135.005 31.0361C134.798 31.3631 134.502 31.6009 134.058 31.809C133.614 32.0468 133.081 32.136 132.46 32.136Z" fill="#1E1E1E"/>
</svg>
